<?xml version="1.0" encoding="utf-8"?>
<!-- Generator: Adobe Illustrator 25.2.1, SVG Export Plug-In . SVG Version: 6.00 Build 0)  -->
<svg version="1.1" id="Capa_1" xmlns="http://www.w3.org/2000/svg" xmlns:xlink="http://www.w3.org/1999/xlink" x="0px" y="0px"
	 viewBox="0 0 415 125" style="enable-background:new 0 0 415 125;" xml:space="preserve">
<style type="text/css">
	.st0{fill:#7597D1;}
</style>
<g id="XMLID_1_">
	<g id="XMLID_73_">
		<polygon id="XMLID_116_" class="st0" points="303.2,42.3 299,42.3 299,46.5 302.7,46.5 302.7,48.2 299,48.2 299,54.5 296.4,54.5 
			296.4,40.6 303.2,40.6 		"/>
		<path id="XMLID_113_" class="st0" d="M312,54c-0.9,0.5-2.1,0.7-3.6,0.7c-2.7,0-4.1-1-4.1-3.1c0-1.3,0.7-2.3,2-2.9
			c0.8-0.4,2-0.7,3.6-0.8v-0.5c0-1.1-0.7-1.7-2-1.7c-0.8,0-1.7,0.2-2.5,0.6l-0.5-1.3c1-0.5,2.2-0.8,3.4-0.8c2.5,0,3.7,1.2,3.7,3.5
			V54z M309.9,53.1V49c-1.1,0.1-1.9,0.3-2.4,0.6c-0.7,0.4-1.1,1.1-1.1,2c0,1.2,0.7,1.9,2.1,1.9C309.1,53.4,309.5,53.3,309.9,53.1"/>
		<path id="XMLID_112_" class="st0" d="M320.4,54c-0.5,0.5-1.3,0.7-2.4,0.7c-1.3,0-2.4-0.6-3.1-1.7c-0.6-0.9-0.9-2.1-0.9-3.5
			c0-1.4,0.3-2.6,0.9-3.5c0.7-1.1,1.7-1.7,3.1-1.7c1,0,1.8,0.2,2.3,0.7l-0.5,1.3c-0.4-0.3-0.8-0.4-1.3-0.4c-1.5,0-2.2,1.2-2.2,3.6
			c0,0.9,0.1,1.7,0.4,2.3c0.4,0.9,1,1.3,1.7,1.3c0.5,0,1-0.1,1.4-0.4L320.4,54z"/>
		<path id="XMLID_111_" class="st0" d="M329.9,53.9c-1,0.5-2.3,0.8-3.8,0.8c-2.6,0-3.9-1.1-3.9-3.4v-6.8h2.3v7
			c0,1.1,0.6,1.7,1.7,1.7c0.6,0,1.1-0.1,1.5-0.3v-8.3h2.3V53.9z"/>
		<rect id="XMLID_110_" x="332.4" y="40.4" class="st0" width="2.3" height="14.1"/>
		<path id="XMLID_109_" class="st0" d="M341.7,54.4c-0.3,0.1-0.7,0.2-1.2,0.2c-0.9,0-1.5-0.2-2-0.7c-0.5-0.5-0.7-1.1-0.7-2v-6h-1.1
			v-1.4h1.1v-3.4l2.3-0.6v4h1.6v1.4h-1.6v5.9c0,0.9,0.4,1.3,1.1,1.3c0.1,0,0.3,0,0.5-0.1V54.4z"/>
		<path id="XMLID_106_" class="st0" d="M350.8,54c-0.9,0.5-2.1,0.7-3.6,0.7c-2.7,0-4.1-1-4.1-3.1c0-1.3,0.6-2.3,2-2.9
			c0.8-0.4,2-0.7,3.6-0.8v-0.5c0-1.1-0.7-1.7-2-1.7c-0.8,0-1.7,0.2-2.5,0.6l-0.5-1.3c1-0.5,2.2-0.8,3.4-0.8c2.5,0,3.7,1.2,3.7,3.5
			V54z M348.7,53.1V49c-1.1,0.1-1.9,0.3-2.4,0.6c-0.7,0.4-1.1,1.1-1.1,2c0,1.2,0.7,1.9,2.1,1.9C347.9,53.4,348.3,53.3,348.7,53.1"/>
		<path id="XMLID_103_" class="st0" d="M361,53.9c-0.9,0.5-2,0.7-3.5,0.7c-1.5,0-2.7-0.5-3.5-1.4c-0.8-0.9-1.2-2.1-1.2-3.7
			c0-1.5,0.4-2.7,1.1-3.7c0.8-1.1,1.9-1.6,3.3-1.6c0.6,0,1.1,0.1,1.5,0.2v-4.1h2.3V53.9z M358.7,52.9v-7.2c-0.3-0.1-0.6-0.1-1-0.1
			c-1.7,0-2.6,1.3-2.6,3.8c0,2.5,0.8,3.8,2.5,3.8C358.1,53.2,358.5,53.1,358.7,52.9"/>
		<g id="XMLID_96_">
			<path id="XMLID_100_" class="st0" d="M376.6,53.8c-0.9,0.5-2,0.7-3.5,0.7c-1.5,0-2.7-0.5-3.5-1.4c-0.8-0.9-1.2-2.1-1.2-3.7
				c0-1.5,0.3-2.7,1.1-3.7c0.8-1.1,1.9-1.6,3.3-1.6c0.6,0,1.1,0.1,1.5,0.2v-4.1h2.3V53.8z M374.3,52.9v-7.2c-0.3-0.1-0.6-0.1-1-0.1
				c-1.8,0-2.6,1.3-2.6,3.8c0,2.5,0.8,3.8,2.5,3.8C373.7,53.1,374.1,53,374.3,52.9"/>
			<path id="XMLID_97_" class="st0" d="M387,49.4l-6.1,0.9c0.2,1.9,1.1,2.8,2.7,2.8c1,0,1.8-0.2,2.5-0.6l0.5,1.4
				c-0.9,0.5-2,0.7-3.3,0.7c-1.5,0-2.7-0.5-3.5-1.5c-0.7-0.9-1.1-2.2-1.1-3.7c0-1.5,0.3-2.7,1-3.6c0.7-1,1.8-1.6,3.3-1.6
				c1.5,0,2.6,0.5,3.2,1.5C386.8,46.6,387,47.8,387,49.4 M384.9,48.5c0-1.9-0.7-2.9-2-2.9c-0.8,0-1.4,0.4-1.8,1.2
				c-0.3,0.6-0.4,1.4-0.4,2.3L384.9,48.5z"/>
		</g>
		<rect id="XMLID_95_" x="296.9" y="60.5" class="st0" width="2.6" height="14"/>
		<path id="XMLID_94_" class="st0" d="M309.8,74.5h-2.3v-7.1c0-1.1-0.6-1.7-1.8-1.7c-0.6,0-1.1,0.1-1.5,0.3v8.5h-2.3V65
			c1-0.5,2.3-0.7,3.9-0.7c1.1,0,2.1,0.2,2.7,0.7c0.8,0.5,1.2,1.3,1.2,2.4V74.5z"/>
		<path id="XMLID_91_" class="st0" d="M320,74.6c0,1.3-0.4,2.3-1.1,3c-0.7,0.7-1.7,1.1-3,1.1c-1.5,0-2.6-0.2-3.4-0.7l0.6-1.5
			c0.7,0.4,1.5,0.6,2.4,0.6c1.5,0,2.3-0.8,2.3-2.3v-0.6c-0.4,0.3-1.1,0.4-1.9,0.4c-1.3,0-2.4-0.5-3.1-1.5c-0.6-0.9-1-2-1-3.4
			c0-1.7,0.4-3,1.2-3.9c0.8-1,2.1-1.5,3.7-1.5c1.4,0,2.5,0.2,3.3,0.7V74.6z M317.8,72.9v-7.1c-0.3-0.1-0.6-0.2-1.2-0.2
			c-1.7,0-2.5,1.3-2.5,4c0,2.5,0.8,3.7,2.4,3.7C317,73.3,317.4,73.1,317.8,72.9"/>
		<path id="XMLID_88_" class="st0" d="M330.3,69.4l-6.1,0.9c0.2,1.9,1.1,2.8,2.7,2.8c1,0,1.8-0.2,2.5-0.6l0.5,1.4
			c-0.9,0.5-2,0.7-3.3,0.7c-1.5,0-2.7-0.5-3.5-1.5c-0.7-0.9-1.1-2.2-1.1-3.7c0-1.5,0.3-2.7,1-3.6c0.7-1,1.8-1.6,3.3-1.6
			c1.5,0,2.5,0.5,3.2,1.5C330.1,66.7,330.4,67.9,330.3,69.4 M328.2,68.5c0-1.9-0.7-2.9-2-2.9c-0.8,0-1.4,0.4-1.8,1.2
			c-0.3,0.6-0.4,1.4-0.4,2.3L328.2,68.5z"/>
		<path id="XMLID_87_" class="st0" d="M340.3,74.5H338v-7.1c0-1.1-0.6-1.7-1.8-1.7c-0.6,0-1.1,0.1-1.5,0.3v8.5h-2.3V65
			c1-0.5,2.3-0.7,3.9-0.7c1.1,0,2.1,0.2,2.7,0.7c0.8,0.5,1.2,1.3,1.2,2.4V74.5z"/>
		<path id="XMLID_84_" class="st0" d="M345.2,61.6c0,0.3-0.1,0.6-0.4,0.8c-0.2,0.2-0.5,0.3-0.9,0.3c-0.3,0-0.6-0.1-0.9-0.3
			c-0.2-0.2-0.4-0.5-0.4-0.8c0-0.3,0.1-0.6,0.4-0.8c0.2-0.2,0.5-0.3,0.9-0.3c0.3,0,0.6,0.1,0.9,0.3C345,61,345.2,61.3,345.2,61.6
			 M345.1,74.5h-2.3v-10h2.3V74.5z"/>
		<path id="XMLID_81_" class="st0" d="M355.5,69.4l-6.1,0.9c0.2,1.9,1.1,2.8,2.7,2.8c1,0,1.8-0.2,2.5-0.6l0.5,1.4
			c-0.9,0.5-2,0.7-3.3,0.7c-1.5,0-2.7-0.5-3.5-1.5c-0.7-0.9-1.1-2.2-1.1-3.7c0-1.5,0.3-2.7,1-3.6c0.7-1,1.8-1.6,3.3-1.6
			c1.5,0,2.6,0.5,3.2,1.5C355.3,66.7,355.5,67.9,355.5,69.4 M353.3,68.5c0-1.9-0.7-2.9-2-2.9c-0.8,0-1.4,0.4-1.8,1.2
			c-0.3,0.6-0.4,1.4-0.4,2.3L353.3,68.5z"/>
		<path id="XMLID_80_" class="st0" d="M362.4,64.3l-0.4,1.7c-0.3-0.1-0.7-0.2-1-0.2c-0.4,0-0.8,0.1-1.1,0.2v8.5h-2.3V65
			C358.6,64.4,360.2,64.2,362.4,64.3"/>
		<path id="XMLID_77_" class="st0" d="M367.4,60.8l-2.3,2.6h-1.2l1.3-2.6c0.4-0.2,0.8-0.3,1.3-0.3C367,60.4,367.3,60.5,367.4,60.8
			 M366.2,74.5h-2.3v-10h2.3V74.5z"/>
		<path id="XMLID_74_" class="st0" d="M375.9,73.9c-0.9,0.5-2.1,0.7-3.6,0.7c-2.7,0-4.1-1-4.1-3.1c0-1.3,0.7-2.3,2-2.9
			c0.8-0.4,2-0.7,3.6-0.8v-0.5c0-1.1-0.7-1.7-2-1.7c-0.8,0-1.7,0.2-2.5,0.6l-0.5-1.3c1-0.5,2.2-0.8,3.4-0.8c2.5,0,3.7,1.2,3.7,3.5
			V73.9z M373.8,73.1V69c-1.1,0.1-1.9,0.3-2.4,0.6c-0.7,0.4-1.1,1.1-1.1,2c0,1.2,0.7,1.9,2.1,1.9C373,73.4,373.5,73.3,373.8,73.1"/>
	</g>
	<g id="XMLID_4_">
		<path id="XMLID_72_" class="st0" d="M75.6,78.8c-11.5,7.4-23.4,7-23.4,7s-0.3-1.5-0.2-4.1c0.1-2.6,1.6-1.9,2.6-4
			c0.4-0.8,0.7-1.3,1.3-3c0-0.1-0.7-12.6-0.9-18c-0.1-2.9-0.6-7.7-1.3-12.3c-0.4-2.8-1.2-4.9-1.6-7.6c-0.6-3.8-1.2-8-1.2-8
			c-0.5,1.2-1.1,5.7-1.8,10.8c-0.3,2.4-0.6,5-0.9,7.4c-0.6,5.1-2.2,18.7-2.5,19.5c-0.4,1.1-0.4-0.3-0.4-0.3s0.9-14.3,1.2-20.6
			c0.1-3.1,0.4-6.4,0.8-9.7c0.3-2.4,0.7-4.8,1.1-6.9c0,0,1.6-5,2.2-5.1c0.5-0.1,2.4,3.1,3.1,6c1.4,6.5,2.3,7.3,3.4,14.1
			c1,6.5,2,11.9,2.1,12.7C59.7,60,59.4,70,58.6,74c-0.2,1.1-0.3,1.5-1,2.2c-1.7,1.7-2.8,3.7-2.8,5c0,1.3-0.2,1.3,0.1,2
			c0,0,2.2,3.3,14.8-4.2c0,0,3.9-2.1,3.9-6.6V26.4c0,0-12.5-4.2-22.1-4.2c-9.6,0-21.7,4.2-21.7,4.2v45.9c0,2.8,0.4,8.1,4.4,9.9
			c0,0-10.7-3.7-10.7-10V22.5c0,0,16.4-3,28-3s28.3,3,28.3,3v49.8C79.8,76.5,75.6,78.8,75.6,78.8"/>
		<path id="XMLID_69_" class="st0" d="M231.3,40.3c-1.1,0.6-2.7,1-4.6,1c-2,0-3.5-0.6-4.5-1.8c-1.1-1.2-1.6-2.8-1.6-4.9
			c0-2.1,0.5-3.8,1.6-5.1c1-1.2,2.4-1.8,4.2-1.8c0.8,0,1.4,0.1,2,0.3v-5.4h3V40.3z M228.3,39v-9.5c-0.4-0.1-0.8-0.2-1.3-0.2
			c-2.3,0-3.5,1.7-3.5,5c0,3.3,1.1,5,3.3,5C227.5,39.3,228,39.2,228.3,39"/>
		<path id="XMLID_66_" class="st0" d="M244.9,34.3l-8.1,1.2c0.2,2.5,1.5,3.7,3.6,3.7c1.3,0,2.4-0.2,3.3-0.7l0.7,1.9
			c-1.1,0.6-2.6,0.9-4.4,0.9c-1.9,0-3.4-0.6-4.5-1.8c-1.1-1.2-1.6-2.9-1.6-5.1c0-2.1,0.5-3.8,1.5-5c1-1.2,2.4-1.8,4.1-1.8
			c1.8,0,3.1,0.6,4,1.7C244.6,30.4,245,32.1,244.9,34.3 M242.1,33.1c0-2.5-0.9-3.8-2.6-3.8c-0.9,0-1.6,0.4-2.1,1.1
			c-0.5,0.8-0.8,2-0.8,3.5L242.1,33.1z"/>
		<rect id="XMLID_65_" x="89.5" y="47.3" class="st0" width="4.7" height="29.1"/>
		<path id="XMLID_62_" class="st0" d="M115.9,66c0,3.2-0.7,5.8-2.1,7.7c-1.5,2.1-3.7,3.1-6.5,3.1c-2.8,0-5-1-6.5-3.1
			c-1.4-1.9-2.1-4.5-2.1-7.7c0-3.2,0.7-5.8,2.1-7.7c1.5-2.1,3.7-3.1,6.5-3.1c2.8,0,5,1,6.5,3.1C115.2,60.2,115.9,62.7,115.9,66
			 M111.2,65.9c0-5.2-1.3-7.8-4-7.8c-2.6,0-4,2.6-4,7.8c0,5.1,1.3,7.6,4,7.6C109.9,73.5,111.2,71,111.2,65.9"/>
		<path id="XMLID_61_" class="st0" d="M132,70.4c0,1.7-0.7,3.2-2,4.5c-1.4,1.2-3.1,1.8-5.4,1.8c-2.4,0-4.3-0.5-5.7-1.5l1.2-3
			c1,0.8,2.3,1.2,3.9,1.2c1,0,1.7-0.3,2.3-0.8c0.6-0.6,0.9-1.3,0.9-2.1c0-0.9-0.2-1.6-0.7-2.1c-0.5-0.5-1.2-1-2.3-1.4
			c-3.2-1.2-4.7-3.1-4.7-5.8c0-1.7,0.6-3.1,1.8-4.3c1.2-1.2,2.8-1.7,4.8-1.7c2.1,0,3.9,0.5,5.4,1.5l-1.2,2.7c-0.9-0.8-2-1.2-3.3-1.2
			c-0.9,0-1.6,0.3-2.2,0.8c-0.5,0.5-0.8,1.2-0.8,1.9c0,1.4,1,2.5,3.1,3.3C130.4,65.6,132,67.6,132,70.4"/>
		<path id="XMLID_58_" class="st0" d="M166.7,76.3h-5.5l-2.2-7.4h-9.3l-2.3,7.4h-4.8l9.5-28.8h5L166.7,76.3z M158.2,65.8l-3-10.1
			c-0.4-1.4-0.7-2.6-0.8-3.5h-0.1c-0.1,0.8-0.4,1.9-0.8,3.5l-3.1,10.1H158.2z"/>
		<path id="XMLID_57_" class="st0" d="M186,76.3h-4.7V61.6c0-2.3-1.2-3.5-3.7-3.5c-1.2,0-2.3,0.2-3.2,0.6v17.6h-4.7V56.7
			c2.1-1,4.8-1.5,8.1-1.5c2.9,0,5,0.6,6.4,1.9c1.2,1.1,1.8,2.6,1.8,4.4V76.3z"/>
		<path id="XMLID_54_" class="st0" d="M207.2,75.2c-1.8,1-4.2,1.5-7.2,1.5c-3.1,0-5.4-0.9-7.1-2.8c-1.7-1.8-2.5-4.4-2.5-7.7
			c0-3.3,0.8-6,2.5-8c1.6-1.9,3.8-2.9,6.6-2.9c1.2,0,2.2,0.1,3.1,0.4v-8.4h4.7V75.2z M202.5,73.3V58.3c-0.6-0.2-1.3-0.3-2.1-0.3
			c-3.6,0-5.5,2.6-5.5,7.9c0,5.2,1.7,7.8,5.1,7.8C201.2,73.7,202,73.6,202.5,73.3"/>
		<path id="XMLID_51_" class="st0" d="M228.6,65.8l-12.7,1.9c0.4,3.8,2.3,5.8,5.7,5.8c2,0,3.7-0.4,5.2-1.2l1.1,3
			c-1.8,1-4.1,1.5-6.9,1.5c-3,0-5.3-0.9-7-2.8c-1.7-1.9-2.6-4.5-2.6-8c0-3.4,0.8-6,2.4-7.9c1.6-1.9,3.7-2.8,6.5-2.8
			c2.8,0,4.9,0.9,6.3,2.7C228,59.7,228.7,62.4,228.6,65.8 M224.2,64c0-3.9-1.4-5.9-4.1-5.9c-1.4,0-2.5,0.6-3.3,1.7
			c-0.8,1.3-1.2,3.1-1.2,5.5L224.2,64z"/>
		<path id="XMLID_50_" class="st0" d="M244.7,70.4c0,1.7-0.7,3.2-2,4.5c-1.4,1.2-3.1,1.8-5.4,1.8c-2.4,0-4.3-0.5-5.7-1.5l1.2-3
			c1,0.8,2.3,1.2,3.9,1.2c1,0,1.7-0.3,2.3-0.8c0.6-0.6,0.9-1.3,0.9-2.1c0-0.9-0.2-1.6-0.7-2.1c-0.5-0.5-1.2-1-2.3-1.4
			c-3.2-1.2-4.7-3.1-4.7-5.8c0-1.7,0.6-3.1,1.8-4.3c1.2-1.2,2.8-1.7,4.7-1.7c2.1,0,3.9,0.5,5.4,1.5l-1.2,2.7
			c-0.9-0.8-2.1-1.2-3.3-1.2c-0.9,0-1.6,0.3-2.2,0.8c-0.5,0.5-0.8,1.2-0.8,1.9c0,1.4,1,2.5,3.1,3.3
			C243.1,65.6,244.7,67.6,244.7,70.4"/>
		<path id="XMLID_49_" class="st0" d="M114.3,41h-3v-9.4c0-1.5-0.8-2.2-2.4-2.2c-0.8,0-1.4,0.1-2.1,0.4V41h-3V28.5
			c1.4-0.6,3.1-1,5.2-1c1.9,0,3.2,0.4,4.1,1.2c0.8,0.7,1.2,1.6,1.2,2.8V41z"/>
		<path id="XMLID_46_" class="st0" d="M120.8,24c0,0.4-0.2,0.8-0.5,1c-0.3,0.3-0.7,0.4-1.2,0.4c-0.5,0-0.8-0.1-1.2-0.4
			c-0.3-0.3-0.5-0.6-0.5-1c0-0.4,0.2-0.8,0.5-1.1c0.3-0.3,0.7-0.4,1.2-0.4c0.5,0,0.8,0.1,1.2,0.4C120.6,23.3,120.8,23.6,120.8,24
			 M120.6,41h-3V27.8h3V41z"/>
		<path id="XMLID_45_" class="st0" d="M134.3,27.8L130,41h-2.8l-4.3-13.3h3.2l2.3,8.6c0.2,0.6,0.3,1.2,0.3,1.8h0
			c0.1-0.5,0.2-1.1,0.3-1.8l2.4-8.6H134.3z"/>
		<path id="XMLID_42_" class="st0" d="M146.8,34.3l-8.1,1.2c0.2,2.5,1.4,3.7,3.6,3.7c1.3,0,2.4-0.2,3.3-0.7l0.7,1.9
			c-1.1,0.6-2.6,0.9-4.4,0.9c-1.9,0-3.4-0.6-4.5-1.8c-1.1-1.2-1.6-2.9-1.6-5.1c0-2.1,0.5-3.8,1.5-5c1-1.2,2.4-1.8,4.1-1.8
			c1.8,0,3.1,0.6,4,1.7C146.4,30.4,146.9,32.1,146.8,34.3 M144,33.2c0-2.5-0.9-3.8-2.6-3.8c-0.9,0-1.6,0.4-2.1,1.1
			c-0.5,0.8-0.8,2-0.8,3.5L144,33.2z"/>
		<path id="XMLID_41_" class="st0" d="M155.9,27.6l-0.6,2.2c-0.4-0.1-0.9-0.2-1.4-0.2c-0.6,0-1.1,0.1-1.4,0.3V41h-3V28.5
			C151,27.8,153.1,27.5,155.9,27.6"/>
		<path id="XMLID_40_" class="st0" d="M165.5,37.2c0,1.1-0.4,2.1-1.3,2.9c-0.9,0.8-2,1.2-3.4,1.2c-1.5,0-2.7-0.3-3.7-1l0.8-1.9
			c0.6,0.5,1.5,0.8,2.5,0.8c0.6,0,1.1-0.2,1.5-0.5c0.4-0.3,0.6-0.8,0.6-1.3c0-0.6-0.1-1-0.4-1.3c-0.3-0.3-0.8-0.6-1.5-0.9
			c-2-0.8-3-2-3-3.7c0-1.1,0.4-2,1.2-2.7c0.8-0.7,1.8-1.1,3-1.1c1.3,0,2.5,0.3,3.4,0.9l-0.7,1.7c-0.6-0.5-1.3-0.7-2.1-0.7
			c-0.6,0-1.1,0.2-1.4,0.5c-0.3,0.3-0.5,0.7-0.5,1.2c0,0.9,0.7,1.6,2,2.1C164.4,34.2,165.5,35.5,165.5,37.2"/>
		<path id="XMLID_37_" class="st0" d="M171.3,24c0,0.4-0.2,0.8-0.5,1c-0.3,0.3-0.7,0.4-1.2,0.4c-0.5,0-0.8-0.1-1.2-0.4
			c-0.3-0.3-0.5-0.6-0.5-1c0-0.4,0.2-0.8,0.5-1.1c0.3-0.3,0.7-0.4,1.2-0.4c0.5,0,0.8,0.1,1.2,0.4C171.2,23.3,171.3,23.6,171.3,24
			 M171.2,41h-3V27.8h3V41z"/>
		<path id="XMLID_34_" class="st0" d="M184.8,40.3c-1.1,0.6-2.7,1-4.6,1c-1.9,0-3.5-0.6-4.5-1.8c-1.1-1.2-1.6-2.8-1.6-4.9
			c0-2.1,0.5-3.8,1.6-5.1c1-1.2,2.4-1.8,4.2-1.8c0.8,0,1.4,0.1,2,0.3v-5.4h3V40.3z M181.8,39.1v-9.5c-0.4-0.1-0.8-0.2-1.3-0.2
			c-2.3,0-3.5,1.7-3.5,5c0,3.3,1.1,5,3.3,5C181,39.4,181.5,39.3,181.8,39.1"/>
		<path id="XMLID_31_" class="st0" d="M197.5,40.3c-1.2,0.6-2.8,1-4.8,1c-3.6,0-5.4-1.3-5.4-4c0-1.6,0.7-2.8,2.2-3.6
			c1.1-0.6,2.9-1,5.2-1.3v-0.7c0-1.5-0.9-2.2-2.6-2.2c-1.1,0-2.2,0.3-3.3,0.8l-0.7-1.7c1.4-0.7,2.9-1,4.5-1c3.3,0,4.9,1.5,4.9,4.6
			V40.3z M194.7,39.3v-5.5c-1.6,0.2-2.7,0.5-3.3,0.9c-0.8,0.5-1.2,1.3-1.2,2.5c0,1.6,0.9,2.5,2.8,2.5
			C193.6,39.6,194.2,39.5,194.7,39.3"/>
		<path id="XMLID_28_" class="st0" d="M211,40.3c-1.1,0.6-2.7,1-4.6,1c-1.9,0-3.5-0.6-4.5-1.8c-1.1-1.2-1.6-2.8-1.6-4.9
			c0-2.1,0.5-3.8,1.6-5.1c1-1.2,2.4-1.8,4.2-1.8c0.8,0,1.4,0.1,2,0.3v-5.4h3V40.3z M208,39.1v-9.5c-0.4-0.1-0.8-0.2-1.3-0.2
			c-2.3,0-3.5,1.7-3.5,5c0,3.3,1.1,5,3.3,5C207.2,39.4,207.7,39.3,208,39.1"/>
		<path id="XMLID_27_" class="st0" d="M89.5,22.6h3.2v14.2c0,1.6,0.8,2.3,2.5,2.3c0.8,0,1.5-0.1,2.2-0.4V22.6h3.2v17.6
			c-1.4,0.7-3.3,1-5.5,1c-2,0-3.4-0.4-4.4-1.3c-0.8-0.7-1.2-1.7-1.2-3V22.6z"/>
		<g id="XMLID_5_">
			<path id="XMLID_25_" class="st0" d="M179.6,105.2c-3.2,0-4.8-2.9-4.8-6.4c0-3.4,1.6-6.4,4.8-6.4c1.2,0,2,0.3,2.6,0.7l-0.5,1.4
				c-0.4-0.2-0.9-0.4-1.6-0.4c-2.1,0-2.8,2.3-2.8,4.7c0,2.4,0.8,4.7,2.8,4.7c0.7,0,1.1-0.2,1.6-0.4l0.5,1.5
				C181.6,104.9,180.7,105.2,179.6,105.2z"/>
			<path id="XMLID_22_" class="st0" d="M187.2,105.2c-2.7,0-4-2.2-4-5c0-2.9,1.3-5,4-5c2.7,0,4,2.1,4,5
				C191.3,103,189.9,105.2,187.2,105.2z M187.2,96.5c-1.5,0-1.9,1.8-1.9,3.6c0,1.8,0.3,3.5,1.9,3.5c1.6,0,1.9-1.7,1.9-3.5
				C189.1,98.3,188.8,96.5,187.2,96.5z"/>
			<path id="XMLID_20_" class="st0" d="M193.3,105V90.8h2.2V105H193.3z"/>
			<path id="XMLID_17_" class="st0" d="M201.6,105.2c-2.7,0-4-2.2-4-5c0-2.9,1.3-5,4-5c2.7,0,4,2.1,4,5
				C205.7,103,204.4,105.2,201.6,105.2z M201.6,96.5c-1.6,0-1.9,1.8-1.9,3.6c0,1.8,0.3,3.5,1.9,3.5c1.6,0,1.9-1.7,1.9-3.5
				C203.5,98.3,203.2,96.5,201.6,96.5z"/>
			<path id="XMLID_15_" class="st0" d="M218.6,105v-6.9c0-0.8-0.5-1.6-1.6-1.6c-0.7,0-1.2,0.2-1.6,0.7v7.8h-2.2v-7
				c0-0.9-0.6-1.5-1.8-1.5c-0.6,0-1,0.1-1.4,0.3v8.2h-2.2v-9.2c1-0.5,2-0.7,3.6-0.7c1.6,0,2.5,0.5,3,1.1c0.6-0.6,1.6-1.1,3.1-1.1
				c2.3,0,3.3,1.4,3.3,3v6.9H218.6z"/>
			<path id="XMLID_12_" class="st0" d="M226.3,105.2c-1.5,0-2.6-0.3-3.2-0.7V90.8h2.2v4.7c0.5-0.2,1-0.4,1.9-0.4
				c2.3,0,3.8,1.9,3.8,4.8C231,103.2,229.3,105.2,226.3,105.2z M226.6,96.4c-0.6,0-1,0.1-1.3,0.3v6.9c0.3,0.1,0.7,0.2,1.1,0.2
				c1.7,0,2.4-1.5,2.4-3.8C228.8,98,228.3,96.4,226.6,96.4z"/>
			<path id="XMLID_9_" class="st0" d="M234.2,93.6c-0.7,0-1.2-0.5-1.2-1.1c0-0.6,0.5-1.1,1.2-1.1c0.7,0,1.2,0.5,1.2,1.1
				C235.4,93.1,234.9,93.6,234.2,93.6z M233.1,105v-9.7h2.2v9.7H233.1z"/>
			<path id="XMLID_6_" class="st0" d="M241.2,105.2c-2.6,0-4-1.1-4-3c0-2.6,2.5-3.3,5.4-3.6v-0.5c0-1.3-0.8-1.6-1.9-1.6
				c-0.9,0-1.8,0.3-2.4,0.6l-0.5-1.3c0.6-0.3,1.8-0.7,3.3-0.7c2,0,3.6,0.8,3.6,3.4v6C243.9,104.9,242.7,105.2,241.2,105.2z
				 M242.6,99.7c-2.1,0.3-3.4,0.7-3.4,2.5c0,1.3,0.8,1.8,2,1.8c0.5,0,1-0.1,1.3-0.3V99.7z"/>
		</g>
	</g>
	<rect id="XMLID_2_" x="270.7" y="20.5" class="st0" width="1.2" height="84.5"/>
</g>
</svg>
