<?xml version="1.0" encoding="utf-8"?>
<!-- Generator: Adobe Illustrator 25.2.1, SVG Export Plug-In . SVG Version: 6.00 Build 0)  -->
<svg version="1.1" id="Capa_1" xmlns="http://www.w3.org/2000/svg" xmlns:xlink="http://www.w3.org/1999/xlink" x="0px" y="0px"
	 viewBox="0 0 100 125" style="enable-background:new 0 0 100 125;" xml:space="preserve">
<style type="text/css">
	.st0{fill:#FFFFFF;}
	.st1{fill:#7597D1;}
</style>
<path class="st0" d="M50,89.4c-21.7,0-39.4-17.6-39.4-39.4S28.3,10.6,50,10.6S89.4,28.3,89.4,50c0,0,0,0,0,0
	C89.4,71.7,71.7,89.4,50,89.4z M50,14.6c-19.5,0-35.4,15.8-35.4,35.4S30.5,85.4,50,85.4S85.4,69.5,85.4,50c0,0,0,0,0,0
	C85.4,30.5,69.5,14.6,50,14.6z M69.1,50c0-1.1-0.9-2-2-2H32.9c-1.1,0-2,0.9-2,2s0.9,2,2,2h34.2C68.2,52,69.1,51.1,69.1,50z M52,67.1
	V32.9c0-1.1-0.9-2-2-2s-2,0.9-2,2v34.2c0,1.1,0.9,2,2,2S52,68.2,52,67.1z"/>
</svg>
